<svg id="Layer_1" data-name="Layer 1" xmlns="http://www.w3.org/2000/svg" viewBox="0 0 440.2 316.21"><defs><style>.cls-1{fill:#fefefe;}.cls-2{fill:#d8e3e9;}.cls-3{fill:#dce5eb;}.cls-4{fill:#e0e8ee;}.cls-5{fill:#ebf1f4;}.cls-6{fill:#e8eef1;}.cls-7{fill:#f6f8f9;}.cls-8{fill:#f5f8f9;}.cls-9{fill:#fcfcfc;}.cls-10{fill:#c6d6df;}.cls-11{fill:#93b0c3;}.cls-12{fill:#a2bccb;}.cls-13{fill:#b0c5d3;}.cls-14{fill:#cedbe4;}.cls-15{fill:#789eb5;}.cls-16{fill:#7299b2;}.cls-17{fill:#a2bbcb;}.cls-18{fill:#bdcfdb;}.cls-19{fill:#d0dde5;}.cls-20{fill:#608ca8;}.cls-21{fill:#6690ac;}.cls-22{fill:#97b4c5;}.cls-23{fill:#a8bfcf;}.cls-24{fill:#6a93ae;}.cls-25{fill:#9db8c9;}.cls-26{fill:#e3ebef;}.cls-27{fill:#b5c9d6;}.cls-28{fill:#d4e0e7;}.cls-29{fill:#b9cbd8;}.cls-30{fill:#7ea2b7;}.cls-31{fill:#eaf0f3;}.cls-32{fill:#82a5bb;}.cls-33{fill:#adc3d1;}.cls-34{fill:#cad8e2;}.cls-35{fill:#c3d3de;}.cls-36{fill:#e7edf1;}.cls-37{fill:#dbe5eb;}.cls-38{fill:#86a8bc;}.cls-39{fill:#8faec2;}.cls-40{fill:#789eb6;}.cls-41{fill:#b1c5d3;}.cls-42{fill:#becfdb;}.cls-43{fill:#a7c0ce;}.cls-44{fill:#c1d1dc;}.cls-45{fill:#8cacc0;}.cls-46{fill:#dee7ed;}.cls-47{fill:#c9d8e1;}.cls-48{fill:#abc2d0;}.cls-49{fill:#6d96af;}.cls-50{fill:#447898;}.cls-51{fill:#a7bfce;}.cls-52{fill:#b4c8d5;}.cls-53{fill:#c4d4de;}.cls-54{fill:#5d89a6;}.cls-55{fill:#346c90;}.cls-56{fill:#9bb7c7;}.cls-57{fill:#7ea2b8;}.cls-58{fill:#b6cad7;}.cls-59{fill:#bbcdd9;}.cls-60{fill:#8faec1;}.cls-61{fill:#b9ccd8;}.cls-62{fill:#89aabf;}.cls-63{fill:#86a8bd;}.cls-64{fill:#c2d2dd;}.cls-65{fill:#eef3f5;}.cls-66{fill:#4e7f9d;}.cls-67{fill:#adc4d1;}.cls-68{fill:#6690ab;}.cls-69{fill:#8cacbf;}.cls-70{fill:#d3dfe7;}.cls-71{fill:#5383a1;}.cls-72{fill:#5c89a6;}.cls-73{fill:#dbe4ea;}.cls-74{fill:#c1d2dc;}.cls-75{fill:#d6e1e8;}.cls-76{fill:#d4dfe7;}.cls-77{fill:#dae4ea;}.cls-78{fill:#8aaabf;}.cls-79{fill:#195981;}.cls-80{fill:#256188;}.cls-81{fill:#f2f5f7;}.cls-82{fill:#c2d3dd;}.cls-83{fill:#abc2d1;}.cls-84{fill:#b4c9d6;}.cls-85{fill:#6d95ae;}.cls-86{fill:#628ea9;}.cls-87{fill:#5f8ba7;}.cls-88{fill:#5886a3;}.cls-89{fill:#e9eef2;}.cls-90{fill:#6891ad;}.cls-91{fill:#f6f9fa;}.cls-92{fill:#c2d3de;}.cls-93{fill:#c6d6e0;}.cls-94{fill:#c7d6df;}.cls-95{fill:#bed0db;}.cls-96{fill:#b6cad6;}.cls-97{fill:#c1d2dd;}.cls-98{fill:#c4d3de;}.cls-99{fill:#d1dee6;}.cls-100{fill:#bbceda;}.cls-101{fill:#d7e2e8;}.cls-102{fill:#326b8f;}.cls-103{fill:#346c8f;}</style></defs><title>horizon-tick</title><path class="cls-1" d="M478,131q0,125.19.09,250.37c0,3.57-.4,4.75-4.46,4.75q-215.64-.21-431.28,0c-4.09,0-4.44-1.22-4.44-4.76Q38.08,242.69,38,104l4,0,24,3.39,12,1.48,16,2,13,1.09,9,1,6,.9,2.92.39,5.08.67.44.17.46,0,5.1.87,6,1,6,1a.84.84,0,0,0,.74.19L159,120.07l9,1.91,4.87,1.11,7.12,1.78,5,1.1,3,.9,4,1,5,1.15c6.61,1.4,5.72,4.06,1.29,7.42A17.45,17.45,0,0,0,196,139l-4.9,5.06-3.22,3.6L184,152l-5,6L173,166l-5.88,8.07-8.82,14L150,204l-2.88,6.06-6,15-6,19a154.12,154.12,0,0,0-6,30,199.16,199.16,0,0,0-2,39l-.07,5.89v3.15l.67,0L128,319c.27-1.68.53-3.36.79-5q.69-5.82,1.37-11.64l6-27,6-19.06q3-7.6,5.92-15.21,1.51-3.45,3-6.9L159,218l9.06-15.82,6-9.09,6.07-8.83,4.89-6.28,3-3.86,4-5,5.05-5.88,8.88-9.36,6-6c1-1,2-1.91,3-2.86l8-7.15,7.81,1.31,2.16.85,8,3.22,1.87.89,6.14,3,7.86,4L260,153l7,4.11,4.88,3,3,2,9.09,6,2.9,2L289,172l6.94,5c9.9,5.41,10.72,11.09.53,17.13-.24.15-.34.55-.51.83l-6.06,6L287,204l-3.93,4.06-8.16,9.88c-.93,1-1.87,2.09-2.81,3.13l-6.22,8.84q-2.89,4.07-5.78,8.15L257,243l-9,16L243,270l-3,7q-3,8-5.92,16-1.5,5-3,10c-7.46,25.13-9.46,50.84-8,76.9l.45,2.19c.13-.74.27-1.47.41-2.2,1-15.57,5-30.61,8.15-45.79q1.5-5,3-10l6-17,3-7.05,5-11,9-17.1,3-5,6-9.92,6-8.95,3-4q4-5.06,8-10.12l4-5,3.06-3.87L297,219q5.48-5.55,11-11.08l3-2.94,6-5.89c4.6-3.48,6.95.87,10,2.87l6,5,4,3.08L345,218l2.91,2.06L357,229l3,3,8,7.05,6,6,12,12,15,16q2,2,4,4l1.19,2.29L406,277l-4-8c-4.38-8.39-8.82-16.74-15-24l-12-15-6-7-8-8-3-3c-3-3.34-5.57-7.24-10-9-.66-.66-1.33-1.31-2-2L337,193,334,191c-1-1.66-3.28-3.32,0-5l3-2.84,9-6.07,3-2,8-5,4-2.05,8-4.93,6-3,12-6,15-6,14-5,23-6,15-3,17.84-2.38L466,130Z" transform="translate(-37.89 -69.9)"/><path class="cls-1" d="M478,131l-12-1c-5.66.57-11.45-1.18-17,1-5,.57-10.12-1.2-15,1a73.52,73.52,0,0,0-21,3l-13,3a34.84,34.84,0,0,0-14,4l-12,4-5,2-9,4-2,1-10.05,5L346,159,335,165l-1,.92-6,4L317,177l-6-4L308,171l-11-7.92-6-4c-1-.67-2-1.34-3-2l-3.9-2.22L275,148.9l-1.92-1.1L267,144l-7-4.06-1.94-1.08-9-5L244,131l-4-2c-5-2.93.46-3.94,1.07-5.84l3-2.06,5-3.2,9-6,3-1.92,5-3,7-4,2-1L283,98l8-4.06,5-2L308,87,317,84l10-3,7-2,12-3,3-.92L357,74l12-2,4,0,4-1,4-1c31.17,0,62.33,0,93.5-.08,3,0,3.61.6,3.59,3.58C477.92,92.67,478,111.83,478,131Z" transform="translate(-37.89 -69.9)"/><path class="cls-1" d="M42,104l-4,0c0-10,.19-20-.1-30-.11-3.44.68-4.1,4.1-4.1q149,.18,298,.1v1l-6,1.06-6,1L317,75l-9,2-11,3-7,2-6,2-8,3L273,88l-7,3-6,3-2,.92L248,100l-5.06,3-1.9,1-6,3.92-3,2-10.11,7.05c-2.16,1.14-4.29,2.44-6.86,1.16l-3-1-6-2-8.94-2.29-6-1.55-3-.3-3-.78-5.94-.92-7-1L168,108l-9-1-8-.83-3-.13-7-.82-5-.07-3-.11-3-.06-8-.78h-6l-9,0-13-.19H69.37l-8.45.08Z" transform="translate(-37.89 -69.9)"/><path class="cls-2" d="M357,74l-8,1.09c0-1.34,0-2.69,0-4l2-1h7Z" transform="translate(-37.89 -69.9)"/><path class="cls-3" d="M357,74l1-4h11v2Z" transform="translate(-37.89 -69.9)"/><path class="cls-4" d="M369,72V70h4c0,.66,0,1.31,0,2Z" transform="translate(-37.89 -69.9)"/><path class="cls-5" d="M373,72c0-.66,0-1.31,0-2h4v1Z" transform="translate(-37.89 -69.9)"/><path class="cls-6" d="M351,70l-2,1-3,0V70Z" transform="translate(-37.89 -69.9)"/><path class="cls-7" d="M377,71V70h4Z" transform="translate(-37.89 -69.9)"/><path class="cls-8" d="M346,70v1l-3,0c0-.31,0-.63,0-1Z" transform="translate(-37.89 -69.9)"/><path class="cls-9" d="M343,70c0,.32,0,.64,0,1l-3,0V70Z" transform="translate(-37.89 -69.9)"/><path class="cls-10" d="M297,163.05,308,171l0,37q-5.49,5.55-11,11.09c-.65-8,1.27-16.11-1-24,.17-.28.27-.68.51-.83,10.19-6,9.37-11.72-.53-17.13C298.23,172.51,296.42,167.69,297,163.05Z" transform="translate(-37.89 -69.9)"/><path class="cls-11" d="M197.06,112.77l8.94,2.29,0,38.81-8.88,9.36C196.3,155.17,198.3,147,196,139a17.45,17.45,0,0,1,2.27-2.56c4.43-3.36,5.32-6-1.29-7.42Q197,120.89,197.06,112.77Z" transform="translate(-37.89 -69.9)"/><path class="cls-12" d="M232.07,334.16c-3.16,15.18-7.14,30.22-8.15,45.79a3.54,3.54,0,0,1-.86,0c-1.43-26.06.57-51.77,8-76.9Q231.58,318.6,232.07,334.16Z" transform="translate(-37.89 -69.9)"/><path class="cls-13" d="M258,272l-9,17.1c-.73-10,1.18-20.14-1-30.11l9-16C259.27,252.63,257.36,262.38,258,272Z" transform="translate(-37.89 -69.9)"/><path class="cls-14" d="M317,177l11-7.1c-.55,10.69,1.24,21.45-1,32.08-3-2-5.38-6.35-10-2.87Q317,188.06,317,177Z" transform="translate(-37.89 -69.9)"/><path class="cls-15" d="M158.27,188.1l8.82-14c2.08,9.3.29,18.73,1,28.09L159,218Z" transform="translate(-37.89 -69.9)"/><path class="cls-16" d="M158.27,188.1,159,218l-8,16.13c-.68-10,1.2-20.11-1-30.08Z" transform="translate(-37.89 -69.9)"/><path class="cls-17" d="M221.86,116.9,232,109.85c-.66,9.77,1.51,19.65-1.19,29.33L223,137.87C222.39,130.89,224.35,123.78,221.86,116.9Z" transform="translate(-37.89 -69.9)"/><path class="cls-18" d="M284,234q-4,5.06-8,10.12c-.78-8.71,1.39-17.54-1.14-26.18l8.16-9.88C285.16,216.63,283.45,225.35,284,234Z" transform="translate(-37.89 -69.9)"/><path class="cls-19" d="M327,202c2.2-10.63.41-21.39,1-32.08l6-4q0,10,0,20c-3.25,1.69-1,3.35,0,5-.62,5.34,1.18,10.84-1,16.07Z" transform="translate(-37.89 -69.9)"/><path class="cls-20" d="M129.17,274.05a154.12,154.12,0,0,1,6-30q.48,15.6.94,31.2l-6,27Z" transform="translate(-37.89 -69.9)"/><path class="cls-21" d="M136.1,275.26q-.47-15.6-.94-31.2l6-19q.45,15.57.92,31.13Z" transform="translate(-37.89 -69.9)"/><path class="cls-22" d="M206,153.87l0-38.81,6,2q0,15.43,0,30.87Z" transform="translate(-37.89 -69.9)"/><path class="cls-23" d="M234.08,293q3-8,5.92-16c2.33,10,.27,20.15,1.08,30.19l-6,17Q234.58,308.62,234.08,293Z" transform="translate(-37.89 -69.9)"/><path class="cls-23" d="M235,107.89l6-3.92q0,9.6.08,19.21c-.61,1.9-6.07,2.91-1.07,5.84,2,4.63.62,9.49.94,14.23l-8-3.22c2.94-.66,2-3.05,2-4.85C235,126.09,235,117,235,107.89Z" transform="translate(-37.89 -69.9)"/><path class="cls-24" d="M142.08,256.2q-.47-15.57-.92-31.13l6-15q.42,15.45.85,30.92Q145,248.6,142.08,256.2Z" transform="translate(-37.89 -69.9)"/><path class="cls-25" d="M221.86,116.9c2.49,6.88.53,14,1.11,21L215,145q0-13.49,0-27C217.57,119.34,219.7,118,221.86,116.9Z" transform="translate(-37.89 -69.9)"/><path class="cls-4" d="M386,257l-12-12c2.26-4.89.42-10.05,1-15.05l12,15C386.46,249,388.16,253.17,386,257Z" transform="translate(-37.89 -69.9)"/><path class="cls-26" d="M386,142a34.84,34.84,0,0,1,14-4c4.25,2.61,1,6.75,2,10l-15,6C386.44,150,388.18,145.83,386,142Z" transform="translate(-37.89 -69.9)"/><path class="cls-27" d="M260.09,238.05q2.9-4.08,5.78-8.15c2.54,9,.41,18.14,1.16,27.18L261,267C260.42,257.36,262.18,247.64,260.09,238.05Z" transform="translate(-37.89 -69.9)"/><path class="cls-28" d="M335,165,346,159q0,9,0,18.08l-9,6.07C335.79,177.13,339.4,170.62,335,165Z" transform="translate(-37.89 -69.9)"/><path class="cls-29" d="M267,257.08c-.75-9,1.38-18.21-1.16-27.18l6.22-8.84c2.11,9,.27,18.06,1,27.07Z" transform="translate(-37.89 -69.9)"/><path class="cls-30" d="M168.05,202.14c-.67-9.36,1.12-18.79-1-28.09L173,166c2.37,9,.36,18.06,1.05,27.07Z" transform="translate(-37.89 -69.9)"/><path class="cls-31" d="M413,135a73.52,73.52,0,0,1,21-3c4-.63,5.66,1,5,5l-23,6C414.84,140.4,418.72,135.89,413,135Z" transform="translate(-37.89 -69.9)"/><path class="cls-32" d="M174,193.05c-.69-9,1.32-18.12-1.05-27.07L179,158c2.19,8.66.28,17.48,1.05,26.19Z" transform="translate(-37.89 -69.9)"/><path class="cls-2" d="M357,229,347.94,220c1.88-5.7,1.5-11.4.07-17.11,4.44,1.79,7,5.69,10,9C357.43,217.62,359.15,223.41,357,229Z" transform="translate(-37.89 -69.9)"/><path class="cls-4" d="M386,142c2.22,3.86.48,8.06,1.05,12.07l-12,6c-.57-4.65,1.2-9.48-1-14Z" transform="translate(-37.89 -69.9)"/><path class="cls-33" d="M248.06,259c2.18,10,.27,20.09,1,30.11l-5,11c-.76-10,1.24-20.16-1.06-30.14Z" transform="translate(-37.89 -69.9)"/><path class="cls-34" d="M317,177q0,11.06,0,22.11L311,205V173Z" transform="translate(-37.89 -69.9)"/><path class="cls-28" d="M345,218,337,210.1,337,193l9,7.94C345.44,206.62,347.15,212.41,345,218Z" transform="translate(-37.89 -69.9)"/><path class="cls-2" d="M347.94,158l10.05-5c-.46,5.69,1.08,11.49-1,17.08l-8,5C348.38,169.36,350.27,163.52,347.94,158Z" transform="translate(-37.89 -69.9)"/><path class="cls-26" d="M386,257c2.18-3.85.48-8,1-12,6.18,7.26,10.62,15.61,15,24l-1,4Z" transform="translate(-37.89 -69.9)"/><path class="cls-35" d="M296,195c2.3,7.92.38,16,1,24l-5.93,6.15c-.85-8.06,1.35-16.25-1.16-24.22Z" transform="translate(-37.89 -69.9)"/><path class="cls-36" d="M413,135c5.73.9,1.85,5.41,3,8l-14,5c-1-3.26,2.23-7.4-2-10Z" transform="translate(-37.89 -69.9)"/><path class="cls-37" d="M361,214.94l8,8c-.6,5.34,1.19,10.83-1,16.06L360,232C362.16,226.41,360.43,220.61,361,214.94Z" transform="translate(-37.89 -69.9)"/><path class="cls-38" d="M180.09,184.22c-.77-8.71,1.14-17.53-1.05-26.19l5-6c2.26,8.58.42,17.31,1,25.95Z" transform="translate(-37.89 -69.9)"/><path class="cls-39" d="M196,139c2.29,8,.29,16.17,1.07,24.23L192,169.11c-.64-8.34,1.14-16.77-.92-25.05Z" transform="translate(-37.89 -69.9)"/><path class="cls-37" d="M360,152l9-4q0,7.51,0,15L361,168C360.43,162.65,362.19,157.18,360,152Z" transform="translate(-37.89 -69.9)"/><path class="cls-40" d="M159,107l9,1v14l-9-1.91Q159,113.52,159,107Z" transform="translate(-37.89 -69.9)"/><path class="cls-41" d="M249.05,133.82l9,5c-.76,4.07,1.29,8.43-1.26,12.32l-7.86-4Q249,140.48,249.05,133.82Z" transform="translate(-37.89 -69.9)"/><path class="cls-42" d="M275,148.9l9.07,5.93L284,168.14l-9.09-6C276.93,157.73,276.33,153.32,275,148.9Z" transform="translate(-37.89 -69.9)"/><path class="cls-43" d="M234.08,293q.49,15.57,1,31.16-1.5,5-3,10-.49-15.56-1-31.1Q232.59,298.05,234.08,293Z" transform="translate(-37.89 -69.9)"/><path class="cls-44" d="M284,234c-.55-8.64,1.16-17.36-.94-25.94L287,204c2.3,8.27.37,16.71,1,25Z" transform="translate(-37.89 -69.9)"/><path class="cls-16" d="M159,107q0,6.56,0,13.11l-10.24-1.94c4.84-3.24,1.08-8.08,2.25-12Z" transform="translate(-37.89 -69.9)"/><path class="cls-45" d="M191.11,144.06c2.06,8.28.28,16.71.92,25.05l-4,5q-.06-13.22-.13-26.42Z" transform="translate(-37.89 -69.9)"/><path class="cls-46" d="M368,239c2.23-5.23.44-10.72,1-16.06l6,7c-.61,5,1.23,10.16-1,15.05Z" transform="translate(-37.89 -69.9)"/><path class="cls-47" d="M311,173v32l-3,2.94,0-37Z" transform="translate(-37.89 -69.9)"/><path class="cls-48" d="M243,270c2.3,10,.3,20.11,1.06,30.14l-3,7.05c-.81-10,1.25-20.2-1.08-30.19Z" transform="translate(-37.89 -69.9)"/><path class="cls-49" d="M148,241q-.44-15.47-.85-30.92L150,204c2.21,10,.33,20.07,1,30.08Q149.51,237.54,148,241Z" transform="translate(-37.89 -69.9)"/><path class="cls-50" d="M94,103.92l13,.19v7.8l-13-1.09V108Z" transform="translate(-37.89 -69.9)"/><path class="cls-51" d="M235,107.89c0,9.1.07,18.2,0,27.29,0,1.8.92,4.19-2,4.85l-2.16-.85c2.7-9.68.53-19.56,1.19-29.33Z" transform="translate(-37.89 -69.9)"/><path class="cls-32" d="M172.06,108.21l7,1c2,5.12.48,10.45.94,15.66l-7.12-1.78C174.34,118,175.48,113,172.06,108.21Z" transform="translate(-37.89 -69.9)"/><path class="cls-52" d="M260.09,238.05c2.09,9.59.33,19.31.91,28.95l-3,5c-.66-9.66,1.25-19.41-1-29Z" transform="translate(-37.89 -69.9)"/><path class="cls-46" d="M369,163q0-7.53,0-15l5-2c2.21,4.54.44,9.37,1,14Z" transform="translate(-37.89 -69.9)"/><path class="cls-53" d="M297,163.05c-.58,4.64,1.23,9.46-1,14L289,172c4.33-3.75.86-8.7,2-12.94Z" transform="translate(-37.89 -69.9)"/><path class="cls-54" d="M129.17,274.05l1,28.24q-.69,5.82-1.37,11.64l-1.6-.92A199.16,199.16,0,0,1,129.17,274.05Z" transform="translate(-37.89 -69.9)"/><path class="cls-55" d="M94,108v2.82l-16-2c-.27-1.65-2-3.33.08-5H92c.33,1.37.66,2.73,1,4.1Z" transform="translate(-37.89 -69.9)"/><path class="cls-56" d="M215,118.06q0,13.48,0,27c-1,.95-2,1.9-3,2.86q0-15.44,0-30.87Z" transform="translate(-37.89 -69.9)"/><path class="cls-57" d="M172.06,108.21c3.42,4.79,2.28,9.82.81,14.88L168,122V108Z" transform="translate(-37.89 -69.9)"/><path class="cls-58" d="M260,139.91l7,4.06q0,6.59,0,13.17L260,153C261.83,148.66,261.38,144.29,260,139.91Z" transform="translate(-37.89 -69.9)"/><path class="cls-59" d="M273.06,248.13c-.7-9,1.14-18.11-1-27.07.94-1,1.88-2.08,2.81-3.13,2.53,8.64.36,17.47,1.14,26.18Z" transform="translate(-37.89 -69.9)"/><path class="cls-60" d="M197.06,112.77q0,8.13-.07,16.25l-5-1.15c-.49-5.54,1.07-11.2-.95-16.65Z" transform="translate(-37.89 -69.9)"/><path class="cls-61" d="M267,157.14q0-6.58,0-13.17,3,1.91,6.07,3.83c-.77,4.07,1.25,8.42-1.23,12.32Z" transform="translate(-37.89 -69.9)"/><path class="cls-62" d="M187.89,147.66q.06,13.22.13,26.42l-3,3.86c-.57-8.64,1.27-17.37-1-25.95Z" transform="translate(-37.89 -69.9)"/><path class="cls-63" d="M180,124.87c-.46-5.21,1-10.54-.94-15.66l5.94.93q0,7.92,0,15.83Z" transform="translate(-37.89 -69.9)"/><path class="cls-64" d="M288,229c-.66-8.34,1.27-16.78-1-25l2.93-3c2.51,8,.31,16.16,1.16,24.22Z" transform="translate(-37.89 -69.9)"/><path class="cls-65" d="M439,137c.65-4-1.05-5.62-5-5,4.88-2.2,10-.43,15-1l7.42.89L454,134Z" transform="translate(-37.89 -69.9)"/><path class="cls-66" d="M107,111.91v-7.8l9,0c0,2.94,0,5.87,0,8.81Z" transform="translate(-37.89 -69.9)"/><path class="cls-24" d="M141,105.18l7,.82v11.94l-6-1Q141.52,111.06,141,105.18Z" transform="translate(-37.89 -69.9)"/><path class="cls-67" d="M249.05,133.82q0,6.66-.1,13.31l-6.14-3c2.54-4.18.56-8.77,1.19-13.12Z" transform="translate(-37.89 -69.9)"/><path class="cls-68" d="M141,105.18q.48,5.86,1,11.74l-6-1v-10.8Z" transform="translate(-37.89 -69.9)"/><path class="cls-69" d="M191.05,111.22c2,5.45.46,11.11.95,16.65l-4-1,0-16Z" transform="translate(-37.89 -69.9)"/><path class="cls-70" d="M335,165c4.39,5.62.78,12.13,2,18.1l-3,2.84q0-10,0-20Z" transform="translate(-37.89 -69.9)"/><path class="cls-71" d="M116,113c0-2.94,0-5.87,0-8.81h6c0,.28,0,.56,0,.84v8.86Z" transform="translate(-37.89 -69.9)"/><path class="cls-72" d="M122,105c0-.28,0-.56,0-.84l8,.78v10l-5.08-.67C123.82,111.21,127.89,106.54,122,105Z" transform="translate(-37.89 -69.9)"/><path class="cls-73" d="M361,214.94c-.59,5.67,1.14,11.47-1,17l-3-3c2.12-5.57.4-11.36,1-17Z" transform="translate(-37.89 -69.9)"/><path class="cls-74" d="M284,168.14l.12-13.31,3.9,2.22c-.57,4.33,1.32,8.88-1.12,13.06Z" transform="translate(-37.89 -69.9)"/><path class="cls-75" d="M347.94,158c2.33,5.57.44,11.41,1.07,17.09l-3,2q0-9,0-18.08Z" transform="translate(-37.89 -69.9)"/><path class="cls-76" d="M337,193l0,17.07L333,207c2.22-5.23.42-10.73,1-16.07Z" transform="translate(-37.89 -69.9)"/><path class="cls-75" d="M345,218c2.12-5.57.41-11.36,1-17,.67.65,1.34,1.3,2,2,1.43,5.71,1.81,11.41-.07,17.11Z" transform="translate(-37.89 -69.9)"/><path class="cls-77" d="M360,152c2.23,5.21.47,10.68,1,16L357,170c2.07-5.59.53-11.39,1-17.08Z" transform="translate(-37.89 -69.9)"/><path class="cls-78" d="M188,110.92l0,16-3-.9q0-7.92,0-15.83Z" transform="translate(-37.89 -69.9)"/><path class="cls-79" d="M42,104l19,0,5,.32v3.09Z" transform="translate(-37.89 -69.9)"/><path class="cls-80" d="M65.92,107.37v-3.09l3.45-.4H78c-2.09,1.63-.35,3.31-.08,5Z" transform="translate(-37.89 -69.9)"/><path class="cls-81" d="M454,134l2.41-2.11L449,131c5.56-2.18,11.35-.43,17-1l5.84,1.62Z" transform="translate(-37.89 -69.9)"/><path class="cls-82" d="M286.86,170.11c2.44-4.18.55-8.73,1.12-13.06,1,.66,2,1.33,3,2-1.11,4.24,2.36,9.19-2,12.94Z" transform="translate(-37.89 -69.9)"/><path class="cls-83" d="M244,131c-.63,4.35,1.35,8.94-1.19,13.12l-1.87-.89c-.32-4.74,1-9.6-.94-14.23Z" transform="translate(-37.89 -69.9)"/><path class="cls-59" d="M271.85,160.12c2.48-3.9.46-8.25,1.23-12.32l1.93,1.1c1.32,4.42,1.92,8.83-.14,13.21C273.86,161.45,272.85,160.79,271.85,160.12Z" transform="translate(-37.89 -69.9)"/><path class="cls-84" d="M260,139.91c1.37,4.38,1.82,8.75-.05,13.12l-3.15-1.88c2.55-3.89.5-8.25,1.26-12.32Z" transform="translate(-37.89 -69.9)"/><path class="cls-85" d="M148,117.94V106l3,.13c-1.17,3.92,2.59,8.76-2.25,12A.84.84,0,0,1,148,117.94Z" transform="translate(-37.89 -69.9)"/><path class="cls-86" d="M136,105.11v10.8l-5.1-.87c4.39-2.57,1-6.76,2.1-10Z" transform="translate(-37.89 -69.9)"/><path class="cls-87" d="M133,105c-1.05,3.28,2.29,7.47-2.1,10l-.46,0-.44-.17v-10Z" transform="translate(-37.89 -69.9)"/><path class="cls-88" d="M122,105c5.89,1.54,1.82,6.21,2.92,9.25l-2.92-.39Z" transform="translate(-37.89 -69.9)"/><path class="cls-89" d="M401,273l1-4,4,8-1,0Q403,275,401,273Z" transform="translate(-37.89 -69.9)"/><path class="cls-90" d="M127.16,313l1.6.92c-.26,1.68-.52,3.36-.79,5a3.27,3.27,0,0,1-.88-.07Z" transform="translate(-37.89 -69.9)"/><path class="cls-91" d="M405,277l1,0,.21,2.32Z" transform="translate(-37.89 -69.9)"/><path class="cls-92" d="M127.09,318.9a3.27,3.27,0,0,0,.88.07l-.21,3.1-.67,0Z" transform="translate(-37.89 -69.9)"/><path class="cls-93" d="M223.06,380a3.54,3.54,0,0,0,.86,0c-.14.73-.28,1.46-.41,2.2Z" transform="translate(-37.89 -69.9)"/><path class="cls-41" d="M248,100l10-5.09q0,8.53,0,17.07l-9,6C248.41,112,250.26,105.84,248,100Z" transform="translate(-37.89 -69.9)"/><path class="cls-94" d="M297,79.92l11-3L308,87,296,92Q296.5,85.95,297,79.92Z" transform="translate(-37.89 -69.9)"/><path class="cls-95" d="M276,86.92l8-3c-.41,4.68,1,9.49-1,14L275,102C277,97.11,275.58,92,276,86.92Z" transform="translate(-37.89 -69.9)"/><path class="cls-96" d="M259.93,94l6-3c1.79,5.35,1.48,10.7.05,16.06l-5,3C260.41,104.68,262.23,99.17,259.93,94Z" transform="translate(-37.89 -69.9)"/><path class="cls-61" d="M266,107c1.43-5.36,1.74-10.71-.05-16.06l7-3,0,15Z" transform="translate(-37.89 -69.9)"/><path class="cls-67" d="M248,100c2.31,5.88.46,12,1,18l-5,3.2c-.69-6.05,1.28-12.27-1.14-18.2Z" transform="translate(-37.89 -69.9)"/><path class="cls-14" d="M317,75,328,73,327,81l-10,3C317,81,317,78,317,75Z" transform="translate(-37.89 -69.9)"/><path class="cls-97" d="M283,98c2-4.56.58-9.37,1-14l6-2c2.23,3.83.51,8,1.05,12Z" transform="translate(-37.89 -69.9)"/><path class="cls-34" d="M317,75c0,3,0,6,0,9L308,87,308,77Z" transform="translate(-37.89 -69.9)"/><path class="cls-98" d="M291,93.93c-.54-4,1.18-8.14-1.05-12l7-2q-.48,6-1,12.06Z" transform="translate(-37.89 -69.9)"/><path class="cls-28" d="M340,71l3,0,3,0v0c0,1.65,0,3.29,0,4.94l-12,3V72.05Z" transform="translate(-37.89 -69.9)"/><path class="cls-48" d="M242.89,102.92c2.42,5.93.45,12.15,1.14,18.2l-3,2.06q0-9.6-.08-19.21Z" transform="translate(-37.89 -69.9)"/><path class="cls-84" d="M259.93,94c2.3,5.22.48,10.73,1.07,16.07l-3,1.92q0-8.53,0-17.07Z" transform="translate(-37.89 -69.9)"/><path class="cls-99" d="M334,72.05V79l-7,2L328,73Z" transform="translate(-37.89 -69.9)"/><path class="cls-100" d="M273,103.05l0-15,3-1.08c-.39,5,1,10.19-1,15.12Z" transform="translate(-37.89 -69.9)"/><path class="cls-101" d="M346,76c0-1.65,0-3.29,0-4.94l3,0c0,1.35,0,2.7,0,4Z" transform="translate(-37.89 -69.9)"/><path class="cls-102" d="M69.37,103.88l-3.45.4-5-.32Z" transform="translate(-37.89 -69.9)"/><path class="cls-103" d="M94,108H93v-4.09h1C94,105.28,94,106.64,94,108Z" transform="translate(-37.89 -69.9)"/><path class="cls-50" d="M93,103.91V108c-.32-1.37-.65-2.73-1-4.1Z" transform="translate(-37.89 -69.9)"/></svg>