<svg id="Layer_1" data-name="Layer 1" xmlns="http://www.w3.org/2000/svg" viewBox="0 0 500 500"><defs><style>.cls-1{fill:#d8e3e9;}.cls-2{fill:#dce5eb;}.cls-3{fill:#e0e8ee;}.cls-4{fill:#ebf1f4;}.cls-5{fill:#f6f8f9;}.cls-6{fill:#fcfcfc;}.cls-7{fill:#c6d6df;}.cls-8{fill:#93b0c3;}.cls-9{fill:#a2bccb;}.cls-10{fill:#b0c5d3;}.cls-11{fill:#cedbe4;}.cls-12{fill:#789eb5;}.cls-13{fill:#7299b2;}.cls-14{fill:#a2bbcb;}.cls-15{fill:#bdcfdb;}.cls-16{fill:#d0dde5;}.cls-17{fill:#608ca8;}.cls-18{fill:#6690ac;}.cls-19{fill:#97b4c5;}.cls-20{fill:#a8bfcf;}.cls-21{fill:#6a93ae;}.cls-22{fill:#9db8c9;}.cls-23{fill:#e3ebef;}.cls-24{fill:#b5c9d6;}.cls-25{fill:#d4e0e7;}.cls-26{fill:#b9cbd8;}.cls-27{fill:#7ea2b7;}.cls-28{fill:#eaf0f3;}.cls-29{fill:#82a5bb;}.cls-30{fill:#adc3d1;}.cls-31{fill:#cad8e2;}.cls-32{fill:#c3d3de;}.cls-33{fill:#e7edf1;}.cls-34{fill:#dbe5eb;}.cls-35{fill:#86a8bc;}.cls-36{fill:#8faec2;}.cls-37{fill:#789eb6;}.cls-38{fill:#b1c5d3;}.cls-39{fill:#becfdb;}.cls-40{fill:#a7c0ce;}.cls-41{fill:#c1d1dc;}.cls-42{fill:#8cacc0;}.cls-43{fill:#dee7ed;}.cls-44{fill:#c9d8e1;}.cls-45{fill:#abc2d0;}.cls-46{fill:#6d96af;}.cls-47{fill:#447898;}.cls-48{fill:#a7bfce;}.cls-49{fill:#b4c8d5;}.cls-50{fill:#c4d4de;}.cls-51{fill:#5d89a6;}.cls-52{fill:#346c90;}.cls-53{fill:#9bb7c7;}.cls-54{fill:#7ea2b8;}.cls-55{fill:#b6cad7;}.cls-56{fill:#bbcdd9;}.cls-57{fill:#8faec1;}.cls-58{fill:#b9ccd8;}.cls-59{fill:#89aabf;}.cls-60{fill:#86a8bd;}.cls-61{fill:#c2d2dd;}.cls-62{fill:#eef3f5;}.cls-63{fill:#4e7f9d;}.cls-64{fill:#adc4d1;}.cls-65{fill:#6690ab;}.cls-66{fill:#8cacbf;}.cls-67{fill:#d3dfe7;}.cls-68{fill:#5383a1;}.cls-69{fill:#5c89a6;}.cls-70{fill:#dbe4ea;}.cls-71{fill:#c1d2dc;}.cls-72{fill:#d6e1e8;}.cls-73{fill:#d4dfe7;}.cls-74{fill:#dae4ea;}.cls-75{fill:#8aaabf;}.cls-76{fill:#195981;}.cls-77{fill:#256188;}.cls-78{fill:#f2f5f7;}.cls-79{fill:#c2d3dd;}.cls-80{fill:#abc2d1;}.cls-81{fill:#b4c9d6;}.cls-82{fill:#6d95ae;}.cls-83{fill:#628ea9;}.cls-84{fill:#5f8ba7;}.cls-85{fill:#5886a3;}.cls-86{fill:#e9eef2;}.cls-87{fill:#f6f9fa;}.cls-88{fill:#c6d6e0;}.cls-89{fill:#c7d6df;}.cls-90{fill:#bed0db;}.cls-91{fill:#b6cad6;}.cls-92{fill:#c1d2dd;}.cls-93{fill:#c4d3de;}.cls-94{fill:#d1dee6;}.cls-95{fill:#bbceda;}.cls-96{fill:#d7e2e8;}.cls-97{fill:#326b8f;}.cls-98{fill:#346c8f;}</style></defs><title>Artboard 1</title><path class="cls-1" d="M357,111l-8,1.09c0-1.34-9-2.7-9-4,.67-.34,10.33-.66,11-1h7Z"/><path class="cls-2" d="M357,111l1-4h11v2Z"/><path class="cls-3" d="M369,109v-2h4c0,.66,0,1.31,0,2Z"/><path class="cls-4" d="M373,109c0-.66,0-1.31,0-2h4v1Z"/><path class="cls-5" d="M377,108v-1h4Z"/><path class="cls-6" d="M343,108l-3,0"/><path class="cls-7" d="M297,200.05,308,208l0,37q-5.49,5.55-11,11.09c-.65-8,1.27-16.11-1-24,.17-.28.27-.68.51-.83,10.19-6,9.37-11.72-.53-17.13C298.23,209.51,296.42,204.69,297,200.05Z"/><path class="cls-8" d="M197.06,149.77l8.94,2.29,0,38.81-8.88,9.36C196.3,192.17,198.3,184,196,176a17.45,17.45,0,0,1,2.27-2.56c4.43-3.36,5.32-6-1.29-7.42Q197,157.89,197.06,149.77Z"/><path class="cls-9" d="M232.07,371.16c-3.16,15.18-7.14,30.22-8.15,45.79a3.54,3.54,0,0,1-.86,0c-1.43-26.06.57-51.77,8-76.9Q231.58,355.6,232.07,371.16Z"/><path class="cls-10" d="M258,309l-9,17.1c-.73-10,1.18-20.14-1-30.11l9-16C259.27,289.63,257.36,299.38,258,309Z"/><path class="cls-11" d="M317,214l11-7.1c-.55,10.69,1.24,21.45-1,32.08-3-2-5.38-6.35-10-2.87Q317,225.06,317,214Z"/><path class="cls-12" d="M158.27,225.1l8.82-14c2.08,9.3.29,18.73,1,28.09L159,255Z"/><path class="cls-13" d="M158.27,225.1,159,255l-8,16.13c-.68-10,1.2-20.11-1-30.08Z"/><path class="cls-14" d="M221.86,153.9,232,146.85c-.66,9.77,1.51,19.65-1.19,29.33L223,174.87C222.39,167.89,224.35,160.78,221.86,153.9Z"/><path class="cls-15" d="M284,271q-4,5.06-8,10.12c-.78-8.71,1.39-17.54-1.14-26.18l8.16-9.88C285.16,253.63,283.45,262.35,284,271Z"/><path class="cls-16" d="M327,239c2.2-10.63.41-21.39,1-32.08l6-4q0,10,0,20c-3.25,1.69-1,3.35,0,5-.62,5.34,1.18,10.84-1,16.07Z"/><path class="cls-17" d="M129.17,311.05a154.12,154.12,0,0,1,6-30q.48,15.6.94,31.2l-6,27Z"/><path class="cls-18" d="M136.1,312.26q-.47-15.6-.94-31.2l6-19q.45,15.57.92,31.13Z"/><path class="cls-19" d="M206,190.87l0-38.81,6,1.95q0,15.44,0,30.87Z"/><path class="cls-20" d="M234.08,330q3-8,5.92-16c2.33,10,.27,20.15,1.08,30.19l-6,17Q234.58,345.62,234.08,330Z"/><path class="cls-20" d="M235,144.89l6-3.92q0,9.6.08,19.21c-.61,1.9-6.07,2.91-1.07,5.84,2,4.63.62,9.49.94,14.23l-8-3.22c2.94-.66,2-3.05,2-4.85C235,163.09,235,154,235,144.89Z"/><path class="cls-21" d="M142.08,293.2q-.47-15.57-.92-31.13l6-15q.42,15.45.85,30.92Q145,285.6,142.08,293.2Z"/><path class="cls-22" d="M221.86,153.9c2.49,6.88.53,14,1.11,21L215,182q0-13.49,0-27C217.57,156.34,219.7,155,221.86,153.9Z"/><path class="cls-3" d="M386,294l-12-12c2.26-4.89.42-10,1-15l12,15C386.46,286,388.16,290.17,386,294Z"/><path class="cls-23" d="M386,179c8-3,6-3,14-4,4.25,2.61,1,6.75,2,10l-15,6C386.44,187,388.18,182.83,386,179Z"/><path class="cls-24" d="M260.09,275.05q2.9-4.08,5.78-8.15c2.54,9,.41,18.14,1.16,27.18L261,304C260.42,294.36,262.18,284.64,260.09,275.05Z"/><path class="cls-25" d="M335,202,346,196q0,9,0,18.08l-9,6.07C335.79,214.13,339.4,207.62,335,202Z"/><path class="cls-26" d="M267,294.08c-.75-9,1.38-18.21-1.16-27.18l6.22-8.84c2.11,9,.27,18.06,1,27.07Z"/><path class="cls-27" d="M168.05,239.14c-.67-9.36,1.12-18.79-1-28.09L173,203c2.37,9,.36,18.06,1.05,27.07Z"/><path class="cls-28" d="M413,172c6.85-2.06,32.87-5,40-5,3.95-.62-13.35,3-14,7l-23,6C414.84,177.4,418.72,172.89,413,172Z"/><path class="cls-29" d="M174,230.05c-.69-9,1.32-18.12-1.05-27.07L179,195c2.19,8.66.28,17.48,1.05,26.19Z"/><path class="cls-1" d="M357,266,347.94,257c1.88-5.7,1.5-11.4.07-17.11,4.44,1.79,7,5.69,10,9C357.43,254.62,359.15,260.41,357,266Z"/><path class="cls-3" d="M386,179c2.22,3.86.48,8.06,1.05,12.07l-12,6c-.57-4.65,1.2-9.48-1-14Z"/><path class="cls-30" d="M248.06,296c2.18,10,.27,20.09,1,30.11l-5,11c-.76-10,1.24-20.16-1.06-30.14Z"/><path class="cls-31" d="M317,214q0,11.06,0,22.11L311,242V210Z"/><path class="cls-25" d="M345,255,337,247.1,337,230l9,7.94C345.44,243.62,347.15,249.41,345,255Z"/><path class="cls-1" d="M347.94,195l10.05-5c-.46,5.69,1.08,11.49-1,17.08l-8,5C348.38,206.36,350.27,200.52,347.94,195Z"/><path class="cls-23" d="M386,294c2.18-3.85.48-8,1-12,6.18,7.26,10.62,15.61,15,24l-1,4Z"/><path class="cls-32" d="M296,232c2.3,7.92.38,16,1,24l-5.93,6.15c-.85-8.06,1.35-16.25-1.16-24.22Z"/><path class="cls-33" d="M413,172c5.73.9,1.85,5.41,3,8l-14,5c-1-3.26,2.23-7.4-2-10Z"/><path class="cls-34" d="M361,251.94l8,8c-.6,5.34,1.19,10.83-1,16.06l-8-7C362.16,263.41,360.43,257.61,361,251.94Z"/><path class="cls-35" d="M180.09,221.22c-.77-8.71,1.14-17.53-1.05-26.19l5-6c2.26,8.58.42,17.31,1,25.95Z"/><path class="cls-36" d="M196,176c2.29,8,.29,16.17,1.07,24.23L192,206.11c-.64-8.34,1.14-16.77-.92-25.05Z"/><path class="cls-34" d="M360,189l9-4q0,7.51,0,15L361,205C360.43,199.65,362.19,194.18,360,189Z"/><path class="cls-37" d="M159,144l9,1v14l-9-1.91Q159,150.51,159,144Z"/><path class="cls-38" d="M249.05,170.82l9,5c-.76,4.07,1.29,8.43-1.26,12.32l-7.86-4Q249,177.49,249.05,170.82Z"/><path class="cls-39" d="M275,185.9l9.07,5.93L284,205.14l-9.09-6C276.93,194.73,276.33,190.32,275,185.9Z"/><path class="cls-40" d="M234.08,330q.49,15.57,1,31.16-1.5,5-3,10-.49-15.56-1-31.1Q232.59,335.05,234.08,330Z"/><path class="cls-41" d="M284,271c-.55-8.64,1.16-17.36-.94-25.94L287,241c2.3,8.27.37,16.71,1,25.05Z"/><path class="cls-13" d="M159,144q0,6.56,0,13.11l-10.24-1.94c4.84-3.24,1.08-8.08,2.25-12Z"/><path class="cls-42" d="M191.11,181.06c2.06,8.28.28,16.71.92,25.05l-4,5q-.06-13.22-.13-26.42Z"/><path class="cls-43" d="M368,276c2.23-5.23.44-10.72,1-16.06l6,7c-.61,5,1.23,10.16-1,15Z"/><path class="cls-44" d="M311,210v32l-3,2.94,0-37Z"/><path class="cls-45" d="M243,307c2.3,10,.3,20.11,1.06,30.14l-3,7.05c-.81-10,1.25-20.2-1.08-30.19Z"/><path class="cls-46" d="M148,278q-.44-15.47-.85-30.92L150,241c2.21,10,.33,20.07,1,30.08Q149.51,274.54,148,278Z"/><path class="cls-47" d="M94,140.92l13,.19v7.8l-13-1.09V145Z"/><path class="cls-48" d="M235,144.89c0,9.1.07,18.2,0,27.29,0,1.8.92,4.19-2,4.85l-2.16-.85c2.7-9.68.53-19.56,1.19-29.33Z"/><path class="cls-29" d="M172.06,145.21l7,1c2,5.12.48,10.45.94,15.66l-7.12-1.78C174.34,155,175.48,150,172.06,145.21Z"/><path class="cls-49" d="M260.09,275.05c2.09,9.59.33,19.31.91,28.95l-3,5c-.66-9.66,1.25-19.41-1-29Z"/><path class="cls-43" d="M369,200q0-7.53,0-15l5-2c2.21,4.54.44,9.37,1,14Z"/><path class="cls-50" d="M297,200.05c-.58,4.64,1.23,9.46-1,14L289,209c4.33-3.75.86-8.7,2-12.94Z"/><path class="cls-51" d="M129.17,311.05l1,28.24q-.69,5.82-1.37,11.64l-1.6-.92A199.16,199.16,0,0,1,129.17,311.05Z"/><path class="cls-52" d="M94,145v2.82l-16-2c-.27-1.65-2-3.33.08-5H92c.33,1.37.66,2.73,1,4.1Z"/><path class="cls-53" d="M215,155.06q0,13.49,0,27c-1,.95-2,1.9-3,2.86q0-15.44,0-30.87Z"/><path class="cls-54" d="M172.06,145.21c3.42,4.79,2.28,9.82.81,14.88L168,159V145Z"/><path class="cls-55" d="M260,176.91l7,4.06q0,6.59,0,13.17L260,190C261.83,185.66,261.38,181.29,260,176.91Z"/><path class="cls-56" d="M273.06,285.13c-.7-9,1.14-18.11-1-27.07.94-1,1.88-2.08,2.81-3.13,2.53,8.64.36,17.47,1.14,26.18Z"/><path class="cls-57" d="M197.06,149.77q0,8.13-.07,16.25l-5-1.15c-.49-5.54,1.07-11.2-.95-16.65Z"/><path class="cls-58" d="M267,194.14q0-6.58,0-13.17,3,1.91,6.07,3.83c-.77,4.07,1.25,8.42-1.23,12.32Z"/><path class="cls-59" d="M187.89,184.66q.06,13.22.13,26.42l-3,3.86c-.57-8.64,1.27-17.37-1-25.95Z"/><path class="cls-60" d="M180,161.87c-.46-5.21,1-10.54-.94-15.66l5.94.93q0,7.92,0,15.83Z"/><path class="cls-61" d="M288,266c-.66-8.34,1.27-16.78-1-25.05l2.93-3c2.51,8,.31,16.16,1.16,24.22Z"/><path class="cls-62" d="M439,174c.65-4-1.05-5.62-5-5,4.88-2.2,10-.43,15-1l7.42.89L454,171Z"/><path class="cls-63" d="M107,148.91v-7.8l9,0c0,2.94,0,5.87,0,8.81Z"/><path class="cls-21" d="M141,142.18l7,.82v11.94l-6-1Q141.52,148.06,141,142.18Z"/><path class="cls-64" d="M249.05,170.82q0,6.66-.1,13.31l-6.14-3c2.54-4.18.56-8.77,1.19-13.12Z"/><path class="cls-65" d="M141,142.18q.48,5.87,1,11.74l-6-1v-10.8Z"/><path class="cls-66" d="M191.05,148.22c2,5.45.46,11.11.95,16.65l-4-1,0-16Z"/><path class="cls-67" d="M335,202c4.39,5.62.78,12.13,2,18.1l-3,2.84q0-10,0-20Z"/><path class="cls-68" d="M116,150c0-2.94,0-5.87,0-8.81h6c0,.28,0,.56,0,.84v8.86Z"/><path class="cls-69" d="M122,142c0-.28,0-.56,0-.84l8,.78v10l-5.08-.67C123.82,148.21,127.89,143.54,122,142Z"/><path class="cls-70" d="M361,251.94c-.59,5.67,1.14,11.47-1,17l-3-3c2.12-5.57.4-11.36,1-17Z"/><path class="cls-71" d="M284,205.14l.12-13.31,3.9,2.22c-.57,4.33,1.32,8.88-1.12,13.06Z"/><path class="cls-72" d="M347.94,195c2.33,5.57.44,11.41,1.07,17.09l-3,2q0-9,0-18.08Z"/><path class="cls-73" d="M337,230l0,17.07L333,244c2.22-5.23.42-10.73,1-16.07Z"/><path class="cls-72" d="M345,255c2.12-5.57.41-11.36,1-17,.67.65,1.34,1.3,2,2,1.43,5.71,1.81,11.41-.07,17.11Z"/><path class="cls-74" d="M360,189c2.23,5.21.47,10.68,1,16L357,207c2.07-5.59.53-11.39,1-17.08Z"/><path class="cls-75" d="M188,147.92l0,16-3-.9q0-7.92,0-15.83Z"/><path class="cls-76" d="M42,141l19,0,5,.32v3.09Z"/><path class="cls-77" d="M65.92,144.37v-3.09l3.45-.4H78c-2.09,1.63-.35,3.31-.08,5Z"/><path class="cls-78" d="M454,171l2.41-2.11L449,168c5.56-2.18,11.35-.43,17-1l5.84,1.62Z"/><path class="cls-79" d="M286.86,207.11c2.44-4.18.55-8.73,1.12-13.06,1,.66,2,1.33,3,2-1.11,4.24,2.36,9.19-2,12.94Z"/><path class="cls-80" d="M244,168c-.63,4.35,1.35,8.94-1.19,13.12l-1.87-.89c-.32-4.74,1-9.6-.94-14.23Z"/><path class="cls-56" d="M271.85,197.12c2.48-3.9.46-8.25,1.23-12.32l1.93,1.1c1.32,4.42,1.92,8.83-.14,13.21C273.86,198.45,272.85,197.79,271.85,197.12Z"/><path class="cls-81" d="M260,176.91c1.37,4.38,1.82,8.75-.05,13.12l-3.15-1.88c2.55-3.89.5-8.25,1.26-12.32Z"/><path class="cls-82" d="M148,154.94V143l3,.13c-1.17,3.92,2.59,8.76-2.25,12A.84.84,0,0,1,148,154.94Z"/><path class="cls-83" d="M136,142.11v10.8l-5.1-.87c4.39-2.57,1-6.76,2.1-10Z"/><path class="cls-84" d="M133,142c-1.05,3.28,2.29,7.47-2.1,10l-.46.05-.44-.17v-10Z"/><path class="cls-85" d="M122,142c5.89,1.54,1.82,6.21,2.92,9.25l-2.92-.39Z"/><path class="cls-86" d="M401,310l1-4,4,8-1,0Q403,312,401,310Z"/><path class="cls-51" d="M127.16,350l1.6.92c-.26,1.68-.52,3.36-.79,5a3.27,3.27,0,0,1-.88-.07Z"/><path class="cls-87" d="M405,314l1,0,.21,2.32Z"/><path class="cls-51" d="M127.09,355.9a3.27,3.27,0,0,0,.88.07l-.21,3.1-.67,0Z"/><path class="cls-88" d="M223.06,417a3.54,3.54,0,0,0,.86,0c-.14.73-.28,1.46-.41,2.2Z"/><path class="cls-38" d="M248,137l10-5.09q0,8.53,0,17.07l-9,6C248.41,149,250.26,142.84,248,137Z"/><path class="cls-89" d="M297,116.92l11-3L308,124,296,129Q296.5,123,297,116.92Z"/><path class="cls-90" d="M276,123.92l8-3c-.41,4.68,1,9.49-1,14.05l-8,4C277,134.11,275.58,129,276,123.92Z"/><path class="cls-91" d="M259.93,131l6-3c1.79,5.35,1.48,10.7.05,16.06l-5,3C260.41,141.68,262.23,136.17,259.93,131Z"/><path class="cls-58" d="M266,144c1.43-5.36,1.74-10.71-.05-16.06l7-3,0,15.05Z"/><path class="cls-64" d="M248,137c2.31,5.88.46,12,1,18l-5,3.2c-.69-6.05,1.28-12.27-1.14-18.2Z"/><path class="cls-11" d="M317,112,328,110,327,118l-10,3C317,118,317,115,317,112Z"/><path class="cls-92" d="M283,135c2-4.56.58-9.37,1-14.05l6-2c2.23,3.83.51,8,1.05,12Z"/><path class="cls-31" d="M317,112c0,3,0,6,0,9L308,124,308,114Z"/><path class="cls-93" d="M291,130.93c-.54-4,1.18-8.14-1.05-12l7-2q-.48,6-1,12.06Z"/><path class="cls-25" d="M340,108l3,0,3,0v0c0,1.65,0,3.29,0,4.94l-12,3v-6.91Z"/><path class="cls-45" d="M242.89,139.92c2.42,5.93.45,12.15,1.14,18.2l-3,2.06q0-9.6-.08-19.21Z"/><path class="cls-81" d="M259.93,131c2.3,5.22.48,10.73,1.07,16.07l-3,1.92q0-8.53,0-17.07Z"/><path class="cls-94" d="M334,109.05V116l-7,2,1-7.93Z"/><path class="cls-95" d="M273,140.05,273,125l3-1.08c-.39,5,1,10.19-1,15.12Z"/><path class="cls-96" d="M346,113c0-1.65,0-3.29,0-4.94l3,0c0,1.35,0,2.7,0,4Z"/><path class="cls-97" d="M69.37,140.88l-3.45.4-5-.32Z"/><path class="cls-98" d="M94,145H93v-4.09h1C94,142.28,94,143.64,94,145Z"/><path class="cls-52" d="M93,140.91V145c-.32-1.37-.65-2.73-1-4.1Z"/></svg>